<mxfile host="app.diagrams.net" agent="Mozilla/5.0 (Windows NT 10.0; Win64; x64) AppleWebKit/537.36 (KHTML, like Gecko) Chrome/130.0.0.0 Safari/537.36" version="24.7.16">
  <diagram name="第 1 页" id="B_vIRFrC_-cKu0zpiYrf">
    <mxGraphModel dx="1434" dy="746" grid="1" gridSize="10" guides="1" tooltips="1" connect="1" arrows="1" fold="1" page="1" pageScale="1" pageWidth="4681" pageHeight="3300" math="0" shadow="0">
      <root>
        <mxCell id="0" />
        <mxCell id="1" parent="0" />
        <mxCell id="gRxAKoVO2HCfGQumd7b_-8" value="" style="group" vertex="1" connectable="0" parent="1">
          <mxGeometry x="120" y="170" width="260" height="290" as="geometry" />
        </mxCell>
        <mxCell id="gRxAKoVO2HCfGQumd7b_-4" value="" style="rounded=1;whiteSpace=wrap;html=1;absoluteArcSize=1;arcSize=14;strokeWidth=2;" vertex="1" parent="gRxAKoVO2HCfGQumd7b_-8">
          <mxGeometry width="260" height="290" as="geometry" />
        </mxCell>
        <mxCell id="gRxAKoVO2HCfGQumd7b_-1" value="logic" style="rounded=1;whiteSpace=wrap;html=1;absoluteArcSize=1;arcSize=14;strokeWidth=2;" vertex="1" parent="gRxAKoVO2HCfGQumd7b_-8">
          <mxGeometry x="50" y="50" width="100" height="50" as="geometry" />
        </mxCell>
        <mxCell id="gRxAKoVO2HCfGQumd7b_-2" value="login" style="rounded=1;whiteSpace=wrap;html=1;absoluteArcSize=1;arcSize=14;strokeWidth=2;" vertex="1" parent="gRxAKoVO2HCfGQumd7b_-8">
          <mxGeometry x="80" y="190" width="100" height="50" as="geometry" />
        </mxCell>
        <mxCell id="gRxAKoVO2HCfGQumd7b_-3" value="......" style="rounded=1;whiteSpace=wrap;html=1;absoluteArcSize=1;arcSize=14;strokeWidth=2;" vertex="1" parent="gRxAKoVO2HCfGQumd7b_-8">
          <mxGeometry x="60" y="120" width="100" height="50" as="geometry" />
        </mxCell>
        <mxCell id="gRxAKoVO2HCfGQumd7b_-5" value="service machine" style="text;html=1;align=center;verticalAlign=middle;resizable=0;points=[];autosize=1;strokeColor=none;fillColor=none;" vertex="1" parent="gRxAKoVO2HCfGQumd7b_-8">
          <mxGeometry x="140" y="260" width="110" height="30" as="geometry" />
        </mxCell>
        <mxCell id="gRxAKoVO2HCfGQumd7b_-13" value="游戏进程&lt;div&gt;走logback&lt;/div&gt;" style="ellipse;whiteSpace=wrap;html=1;aspect=fixed;" vertex="1" parent="1">
          <mxGeometry x="410" y="200" width="80" height="80" as="geometry" />
        </mxCell>
        <mxCell id="gRxAKoVO2HCfGQumd7b_-21" style="edgeStyle=orthogonalEdgeStyle;rounded=0;orthogonalLoop=1;jettySize=auto;html=1;exitX=1;exitY=0.5;exitDx=0;exitDy=0;" edge="1" parent="1" source="gRxAKoVO2HCfGQumd7b_-14" target="gRxAKoVO2HCfGQumd7b_-7">
          <mxGeometry relative="1" as="geometry" />
        </mxCell>
        <mxCell id="gRxAKoVO2HCfGQumd7b_-14" value="filebeat" style="ellipse;whiteSpace=wrap;html=1;aspect=fixed;" vertex="1" parent="1">
          <mxGeometry x="410" y="360" width="80" height="80" as="geometry" />
        </mxCell>
        <mxCell id="gRxAKoVO2HCfGQumd7b_-15" value="" style="endArrow=classic;html=1;rounded=0;entryX=0;entryY=0.333;entryDx=0;entryDy=0;entryPerimeter=0;" edge="1" parent="1" target="gRxAKoVO2HCfGQumd7b_-6">
          <mxGeometry width="50" height="50" relative="1" as="geometry">
            <mxPoint x="490" y="240" as="sourcePoint" />
            <mxPoint x="540" y="190" as="targetPoint" />
          </mxGeometry>
        </mxCell>
        <mxCell id="gRxAKoVO2HCfGQumd7b_-16" value="info级别的topic: &lt;span style=&quot;text-wrap-mode: wrap;&quot;&gt;event&lt;/span&gt;" style="text;html=1;align=center;verticalAlign=middle;resizable=0;points=[];autosize=1;strokeColor=none;fillColor=none;" vertex="1" parent="1">
          <mxGeometry x="515" y="200" width="140" height="30" as="geometry" />
        </mxCell>
        <mxCell id="gRxAKoVO2HCfGQumd7b_-17" value="" style="endArrow=classic;html=1;rounded=0;entryX=-0.017;entryY=0.744;entryDx=0;entryDy=0;entryPerimeter=0;exitX=1;exitY=0.5;exitDx=0;exitDy=0;" edge="1" parent="1" source="gRxAKoVO2HCfGQumd7b_-13" target="gRxAKoVO2HCfGQumd7b_-6">
          <mxGeometry width="50" height="50" relative="1" as="geometry">
            <mxPoint x="500" y="250" as="sourcePoint" />
            <mxPoint x="710" y="230" as="targetPoint" />
          </mxGeometry>
        </mxCell>
        <mxCell id="gRxAKoVO2HCfGQumd7b_-18" value="error级别的topic: &lt;span style=&quot;text-wrap-mode: wrap;&quot;&gt;hall_server&lt;/span&gt;" style="text;html=1;align=center;verticalAlign=middle;resizable=0;points=[];autosize=1;strokeColor=none;fillColor=none;" vertex="1" parent="1">
          <mxGeometry x="495" y="250" width="180" height="30" as="geometry" />
        </mxCell>
        <mxCell id="gRxAKoVO2HCfGQumd7b_-19" value="" style="group" vertex="1" connectable="0" parent="1">
          <mxGeometry x="690" y="355" width="310" height="90" as="geometry" />
        </mxCell>
        <mxCell id="gRxAKoVO2HCfGQumd7b_-7" value="kafka&lt;div&gt;&lt;br&gt;&lt;/div&gt;&lt;div&gt;alikafka_pre-cn-6ja1yi3yi00a&lt;/div&gt;&lt;div&gt;topic:&amp;nbsp;hallserverlog&lt;/div&gt;" style="strokeWidth=2;html=1;shape=mxgraph.flowchart.database;whiteSpace=wrap;" vertex="1" parent="gRxAKoVO2HCfGQumd7b_-19">
          <mxGeometry width="180" height="90" as="geometry" />
        </mxCell>
        <mxCell id="gRxAKoVO2HCfGQumd7b_-10" value="172.31.2.132:9092&lt;div&gt;172.31.2.133:9092&lt;/div&gt;&lt;div&gt;172.31.2.134:9092&lt;/div&gt;" style="text;html=1;align=center;verticalAlign=middle;resizable=0;points=[];autosize=1;strokeColor=none;fillColor=none;" vertex="1" parent="gRxAKoVO2HCfGQumd7b_-19">
          <mxGeometry x="190" y="15" width="120" height="60" as="geometry" />
        </mxCell>
        <mxCell id="gRxAKoVO2HCfGQumd7b_-20" value="" style="group" vertex="1" connectable="0" parent="1">
          <mxGeometry x="700" y="190" width="310" height="90" as="geometry" />
        </mxCell>
        <mxCell id="gRxAKoVO2HCfGQumd7b_-6" value="kafka&lt;div&gt;&lt;br&gt;&lt;/div&gt;&lt;div&gt;alikafka_pre-cn-m7r1u88dy008&lt;/div&gt;&lt;div&gt;&lt;br&gt;&lt;/div&gt;" style="strokeWidth=2;html=1;shape=mxgraph.flowchart.database;whiteSpace=wrap;" vertex="1" parent="gRxAKoVO2HCfGQumd7b_-20">
          <mxGeometry width="180" height="90" as="geometry" />
        </mxCell>
        <mxCell id="gRxAKoVO2HCfGQumd7b_-9" value="&lt;div style=&quot;text-wrap-mode: wrap;&quot;&gt;172.16.6.61:9092,&lt;/div&gt;&lt;div style=&quot;text-wrap-mode: wrap;&quot;&gt;172.16.6.59:9092&lt;/div&gt;&lt;div style=&quot;text-wrap-mode: wrap;&quot;&gt;172.16.6.60:9092&lt;/div&gt;" style="text;html=1;align=center;verticalAlign=middle;resizable=0;points=[];autosize=1;strokeColor=none;fillColor=none;" vertex="1" parent="gRxAKoVO2HCfGQumd7b_-20">
          <mxGeometry x="190" y="20" width="120" height="60" as="geometry" />
        </mxCell>
        <mxCell id="gRxAKoVO2HCfGQumd7b_-22" value="日志文件对应的topic:&amp;nbsp;hallserverlog" style="text;html=1;align=center;verticalAlign=middle;resizable=0;points=[];autosize=1;strokeColor=none;fillColor=none;" vertex="1" parent="1">
          <mxGeometry x="480" y="368" width="210" height="30" as="geometry" />
        </mxCell>
        <mxCell id="gRxAKoVO2HCfGQumd7b_-25" style="edgeStyle=orthogonalEdgeStyle;rounded=0;orthogonalLoop=1;jettySize=auto;html=1;exitX=0;exitY=0.5;exitDx=0;exitDy=0;" edge="1" parent="1" source="gRxAKoVO2HCfGQumd7b_-24">
          <mxGeometry relative="1" as="geometry">
            <mxPoint x="1010" y="405" as="targetPoint" />
          </mxGeometry>
        </mxCell>
        <mxCell id="gRxAKoVO2HCfGQumd7b_-24" value="logstash&lt;div&gt;172.16.6.166&lt;/div&gt;&lt;div&gt;name:logserver&lt;/div&gt;" style="rounded=1;whiteSpace=wrap;html=1;absoluteArcSize=1;arcSize=14;strokeWidth=2;" vertex="1" parent="1">
          <mxGeometry x="1230" y="370" width="120" height="70" as="geometry" />
        </mxCell>
        <mxCell id="gRxAKoVO2HCfGQumd7b_-26" value="消费，日志输出文件存储/data2" style="text;html=1;align=center;verticalAlign=middle;resizable=0;points=[];autosize=1;strokeColor=none;fillColor=none;" vertex="1" parent="1">
          <mxGeometry x="1030" y="380" width="190" height="30" as="geometry" />
        </mxCell>
      </root>
    </mxGraphModel>
  </diagram>
</mxfile>
